# xmcd
#
# Track frame offsets:
#	150
#	15362
#	30230
#	47747
#	67640
#	81217
#	96792
#	116217
#	133755
#	148865
#	162922
#	178234
#	194902
#	211482
#	232635
#
# Disc length: 3345 seconds
#
# Revision: 2
# Processed by: cddbd v1.5.2PL0 Copyright (c) Steve Scherf et al.
# Submitted via: EZCDAudioConverter 2.4.0.1
#
DISCID=ca0d0f0f
DTITLE=João Paulo and Daniel - João Paulo and Daniel - Vol. 6
DYEAR=1995
DGENRE=Sertanejo
TTITLE0=Alguém
TTITLE1=Toma Conta de Mim
TTITLE2=Hoje Eu Sei
TTITLE3=Se Você Quiser Voltar
TTITLE4=Vai e Volta
TTITLE5=Você Não Morre Mais
TTITLE6=Que Dure Para Sempre
TTITLE7=Apaixonado Por Você
TTITLE8=Eu Me Amarrei
TTITLE9=Você Só Me Faz Feliz
TTITLE10=Estou Tentado Te Esquecer
TTITLE11=Olhos Claros
TTITLE12=Emboscada de Amor
TTITLE13=Só Eu e Você
TTITLE14=Estou na Pior
EXTD=
EXTT0=
EXTT1=
EXTT2=
EXTT3=
EXTT4=
EXTT5=
EXTT6=
EXTT7=
EXTT8=
EXTT9=
EXTT10=
EXTT11=
EXTT12=
EXTT13=
EXTT14=
PLAYORDER=
